<?xml version="1.0" standalone="no"?>
<!DOCTYPE svg PUBLIC "-//W3C//DTD SVG 20010904//EN"
 "http://www.w3.org/TR/2001/REC-SVG-20010904/DTD/svg10.dtd">
<svg version="1.0" xmlns="http://www.w3.org/2000/svg"
 width="225.000000pt" height="225.000000pt" viewBox="0 0 225.000000 225.000000"
 preserveAspectRatio="xMidYMid meet">
<metadata>
Created by potrace 1.14, written by Peter Selinger 2001-2017
</metadata>
<g transform="translate(0.000000,225.000000) scale(0.100000,-0.100000)"
fill="#000000" stroke="none">
<path d="M985 2239 c-246 -33 -466 -140 -643 -313 -451 -438 -451 -1164 0
-1602 440 -428 1126 -428 1566 0 349 339 439 866 221 1300 -61 120 -113 192
-213 292 -165 165 -357 268 -576 310 -98 19 -267 25 -355 13z m293 -600 c121
-59 194 -179 195 -321 1 -66 -4 -85 -31 -141 -38 -77 -102 -139 -180 -175 -46
-22 -72 -26 -137 -27 -71 0 -88 4 -147 33 -169 83 -245 274 -178 447 28 71
101 150 173 184 90 44 214 44 305 0z m-26 -944 c140 -29 258 -91 370 -195 l71
-66 -49 -36 c-72 -53 -177 -103 -279 -134 -81 -25 -105 -27 -240 -27 -135 0
-159 2 -240 27 -102 31 -207 81 -279 134 l-49 36 59 55 c190 177 422 252 636
206z"/>
</g>
</svg>
